<svg width="60" height="40" viewBox="0 0 60 40" fill="none" xmlns="http://www.w3.org/2000/svg">
<path d="M4.73387 24.6841C2.11841 24.6841 0 22.5657 0 19.9502C0 17.3347 2.11841 15.2163 4.73387 15.2163C7.34934 15.2163 9.46775 17.3347 9.46775 19.9502C9.46775 22.5657 7.34934 24.6841 4.73387 24.6841ZM52.0726 15.2163C49.4571 15.2163 47.3387 17.3347 47.3387 19.9502C47.3387 22.5657 49.4571 24.6841 52.0726 24.6841C54.6881 24.6841 56.8065 22.5657 56.8065 19.9502C56.8065 17.3347 54.6881 15.2163 52.0726 15.2163ZM7.22862 31.5387C5.2262 33.2193 4.96347 36.2063 6.64399 38.2088C8.32452 40.2112 11.3116 40.4739 13.314 38.7934C15.3164 37.1129 15.5792 34.1258 13.8987 32.1234C12.2181 30.1209 9.23105 29.8582 7.22862 31.5387ZM49.5779 8.36169C51.5803 6.68117 51.843 3.69409 50.1625 1.69166C48.482 -0.310765 45.4949 -0.573495 43.4925 1.10703C41.49 2.78755 41.2273 5.77463 42.9078 7.77706C44.5883 9.77948 47.5754 10.0422 49.5779 8.36169ZM13.314 1.1094C11.3116 -0.571128 8.32452 -0.310765 6.64399 1.69403C4.96347 3.69883 5.22383 6.68353 7.22862 8.36406C9.23342 10.0446 12.2181 9.78422 13.8987 7.77942C15.5792 5.77463 15.3188 2.78992 13.314 1.1094ZM49.5779 31.5387C47.5754 29.8582 44.5883 30.1186 42.9078 32.1234C41.2273 34.1258 41.4877 37.1129 43.4925 38.7934C45.4949 40.4739 48.482 40.2136 50.1625 38.2088C51.843 36.2063 51.5826 33.2193 49.5779 31.5387ZM37.4899 21.394C35.4875 19.7135 32.5004 19.9739 30.8199 21.9787C29.1394 23.9835 29.3997 26.9682 31.4045 28.6487C33.4093 30.3292 36.394 30.0689 38.0745 28.0641C39.7551 26.0593 39.4947 23.0746 37.4899 21.394ZM25.402 11.2517C23.3995 9.57119 20.4125 9.83156 18.7319 11.8364C17.0514 13.8411 17.3118 16.8259 19.3166 18.5064C21.3214 20.1869 24.3061 19.9265 25.9866 17.9217C27.6671 15.917 27.4068 12.9322 25.402 11.2517Z" fill="white"/>
</svg>
